# xmcd CD database file
#
# Track frame offsets:
#	150
#	13033
#	25490
#	38543
#	51258
#	64673
#	76535
#	89640
#	101068
#	114128
#	131062
#	142207
#	155327
#	168504
#	181921
#	193891
#	205439
#	218275
#	230838
#	244180
#
# Disc length: 3438 seconds
#
# Revision: 1
# Processed by: cddbd v1.5.2PL0 Copyright (c) Steve Scherf et al.
# Submitted via: CDex 1.94
#
DISCID=170d6c14
DTITLE=James Brown - The Singles # 2.2 1960-1963
DYEAR=1900
DGENRE=Blues
TTITLE0=Shout and Shimmy
TTITLE1=Come Over Here
TTITLE2=Mashed Potatoes USA
TTITLE3=You Don't Have To Go
TTITLE4=(Can You) Feel It - Part 1
TTITLE5=(Can You) Feel It - Part 2
TTITLE6=Three Hearts In A Tangle
TTITLE7=I've Got Money
TTITLE8=Like A Baby
TTITLE9=Every Beat Of My Heart
TTITLE10=Prisoner Of Love
TTITLE11=Choo-Choo
TTITLE12=These Foolish Things
TTITLE13=(Can You) Feel It - Part 1
TTITLE14=Devil's Den - Part 1
TTITLE15=Devil's Den - Part 2
TTITLE16=Signed, Sealed, And Delivered
TTITLE17=Waiting In Vain
TTITLE18=Oh Baby Don't You Weep - Part 1
TTITLE19=Oh Baby Don't You Weep - Part 2
EXTD=
EXTT0=
EXTT1=
EXTT2=
EXTT3=
EXTT4=
EXTT5=
EXTT6=
EXTT7=
EXTT8=
EXTT9=
EXTT10=
EXTT11=
EXTT12=
EXTT13=
EXTT14=
EXTT15=
EXTT16=
EXTT17=
EXTT18=
EXTT19=
PLAYORDER=
